<svg xmlns="http://www.w3.org/2000/svg" width="758" height="834" viewBox="0 0 758 834">
<g>
<path d="M 0.00 417.00 L 0.00 0.00 L 379.00 0.00 L 758.00 0.00 L 758.00 417.00 L 758.00 834.00 L 379.00 834.00 L 0.00 834.00 L 0.00 417.00 ZM 453.50 798.41 C462.58,793.67 466.40,782.08 461.98,772.68 C459.56,767.53 455.53,763.96 450.10,762.14 C445.31,760.53 322.69,760.53 317.90,762.14 C303.75,766.88 299.44,784.44 309.86,794.86 C311.91,796.91 315.15,799.09 317.05,799.71 C319.46,800.48 340.01,800.77 385.00,800.66 C448.32,800.50 449.57,800.46 453.50,798.41 ZM 400.23 706.66 C407.42,703.20 416.49,696.66 433.00,683.04 C453.59,666.06 468.38,662.91 499.00,668.99 C504.77,670.13 514.08,671.35 519.67,671.68 C546.63,673.30 556.50,665.55 568.43,633.41 C584.38,590.43 589.06,585.75 630.50,571.30 C650.14,564.46 660.80,557.20 665.59,547.41 C670.32,537.74 670.01,523.70 664.40,492.50 C663.31,486.45 662.93,480.14 663.23,473.25 C663.64,463.65 663.94,462.47 667.87,454.54 C670.63,448.95 676.83,440.01 686.07,428.28 C694.28,417.86 701.61,407.42 703.79,403.05 C707.21,396.19 707.50,394.93 707.48,387.05 C707.46,374.38 704.85,369.76 679.28,337.11 C662.55,315.76 660.21,305.17 665.53,274.90 C671.44,241.33 669.70,227.07 658.49,217.20 C653.50,212.81 641.03,206.25 631.50,203.01 C628.20,201.89 619.58,198.45 612.34,195.36 C597.91,189.21 590.07,183.82 584.54,176.23 C581.27,171.75 572.01,151.15 567.92,139.26 C562.60,123.81 554.28,110.97 546.77,106.64 C537.20,101.13 521.30,100.77 495.84,105.50 C480.98,108.26 468.12,108.68 460.50,106.64 C450.64,104.01 442.84,99.10 421.50,82.07 C413.62,75.78 404.24,69.28 400.05,67.20 C393.20,63.80 391.91,63.50 384.00,63.50 C376.09,63.50 374.80,63.80 367.95,67.20 C363.76,69.28 354.38,75.78 346.50,82.07 C329.39,95.72 322.83,100.24 314.18,104.34 C307.79,107.36 306.96,107.50 295.00,107.50 C286.06,107.50 278.80,106.81 269.50,105.09 C254.51,102.32 234.19,101.68 227.29,103.78 C216.04,107.19 209.14,116.60 198.93,142.40 C188.06,169.88 185.61,174.60 178.57,181.52 C171.20,188.77 161.53,194.00 143.50,200.47 C107.30,213.46 99.01,221.85 99.03,245.50 C99.04,253.31 100.10,261.71 103.54,281.00 C104.71,287.61 105.08,293.55 104.73,300.54 C103.96,316.19 101.02,321.93 80.70,347.43 C73.62,356.31 66.57,366.35 64.37,370.69 C60.76,377.80 60.50,378.90 60.50,386.96 C60.50,394.93 60.79,396.19 64.21,403.05 C66.39,407.42 73.72,417.86 81.93,428.28 C91.17,440.01 97.37,448.95 100.13,454.54 C104.06,462.47 104.36,463.65 104.77,473.25 C105.07,480.10 104.68,486.48 103.61,492.50 C98.09,523.41 97.68,536.85 101.98,546.78 C106.06,556.18 117.83,564.24 138.00,571.45 C142.12,572.92 151.16,576.60 158.08,579.62 C180.68,589.49 185.68,595.97 199.57,633.41 C211.50,665.55 221.37,673.30 248.33,671.68 C253.92,671.34 263.45,670.05 269.50,668.81 C277.70,667.12 283.94,666.54 294.00,666.53 L 307.50 666.52 L 315.50 670.33 C324.05,674.40 327.59,676.87 346.74,692.14 C366.48,707.89 373.80,711.35 385.73,710.61 C391.34,710.26 394.60,709.37 400.23,706.66 ZM 365.00 788.17 C365.00,787.71 365.97,787.38 367.15,787.42 C368.33,787.46 369.49,786.94 369.73,786.25 C370.01,785.45 369.59,785.22 368.57,785.61 C366.75,786.31 364.00,784.40 364.00,782.45 C364.00,780.15 366.78,778.24 369.38,778.73 C371.58,779.15 371.84,779.66 371.59,782.95 C371.44,785.01 370.99,787.21 370.59,787.85 C369.78,789.16 365.00,789.44 365.00,788.17 ZM 369.50 782.43 C369.50,781.38 368.71,780.38 367.75,780.19 C365.99,779.85 365.22,782.88 366.69,784.35 C367.87,785.54 369.50,784.42 369.50,782.43 ZM 330.15 780.75 L 330.30 775.50 L 330.90 779.96 C331.39,783.62 331.95,784.54 334.00,785.11 C336.30,785.75 336.24,785.81 333.25,785.90 L 330.00 786.00 L 330.15 780.75 ZM 337.67 785.33 C336.29,783.95 337.07,780.03 338.93,779.04 C340.39,778.26 341.25,778.39 342.43,779.57 C344.80,781.94 344.33,783.00 340.94,783.00 C338.99,783.00 338.13,783.39 338.55,784.09 C338.92,784.69 340.07,784.95 341.11,784.68 C342.15,784.41 343.00,784.60 343.00,785.09 C343.00,786.14 338.67,786.33 337.67,785.33 ZM 342.00 781.00 C342.00,780.45 341.35,780.00 340.56,780.00 C339.77,780.00 338.84,780.45 338.50,781.00 C338.16,781.55 338.81,782.00 339.94,782.00 C341.07,782.00 342.00,781.55 342.00,781.00 ZM 346.56 784.75 C345.46,781.14 345.33,779.09 346.12,777.86 C347.42,775.85 348.83,778.43 348.21,781.67 C347.92,783.21 348.27,784.56 349.11,785.09 C350.21,785.79 350.13,785.97 348.72,785.98 C347.74,785.99 346.77,785.44 346.56,784.75 ZM 354.00 785.09 C354.00,784.60 354.90,784.42 356.00,784.71 C357.12,785.00 358.00,784.74 358.00,784.12 C358.00,783.50 357.31,783.00 356.47,783.00 C354.44,783.00 353.36,780.02 355.01,778.99 C355.73,778.55 357.03,778.46 357.91,778.80 C359.14,779.27 358.93,779.57 357.00,780.11 L 354.50 780.82 L 356.75 781.53 C359.95,782.53 359.76,786.00 356.50,786.00 C355.12,786.00 354.00,785.59 354.00,785.09 ZM 374.04 784.55 C372.03,782.12 373.74,778.83 376.83,779.19 C380.52,779.62 381.13,783.00 377.51,783.00 C375.95,783.00 375.14,783.42 375.53,784.04 C375.88,784.61 377.09,784.79 378.21,784.43 C379.57,784.00 380.02,784.15 379.57,784.89 C378.60,786.46 375.47,786.27 374.04,784.55 ZM 378.50 781.00 C378.16,780.45 377.23,780.00 376.44,780.00 C375.65,780.00 375.00,780.45 375.00,781.00 C375.00,781.55 375.93,782.00 377.06,782.00 C378.19,782.00 378.84,781.55 378.50,781.00 ZM 382.50 784.01 C382.16,782.91 382.13,781.60 382.44,781.09 C382.76,780.59 382.57,780.02 382.04,779.84 C381.46,779.64 381.42,778.93 381.94,778.09 C382.68,776.90 383.08,776.93 384.48,778.34 C385.39,779.25 385.66,780.00 385.07,780.00 C383.57,780.00 383.73,784.72 385.25,785.34 C386.02,785.65 385.86,785.87 384.82,785.92 C383.89,785.96 382.85,785.10 382.50,784.01 ZM 391.00 785.09 C391.00,784.60 391.90,784.42 393.00,784.71 C394.10,785.00 395.00,784.76 395.00,784.18 C395.00,783.61 394.10,782.85 393.00,782.50 C390.73,781.78 390.33,779.47 392.34,778.70 C393.08,778.42 394.28,778.55 395.00,779.00 C395.96,779.59 395.65,779.95 393.91,780.28 L 391.50 780.75 L 393.75 781.49 C396.95,782.55 396.75,786.00 393.50,786.00 C392.12,786.00 391.00,785.59 391.00,785.09 ZM 398.88 785.00 C398.81,784.45 398.71,783.21 398.66,782.25 C398.61,781.29 398.24,780.26 397.84,779.97 C397.43,779.68 397.49,778.82 397.96,778.06 C398.68,776.91 399.10,776.95 400.48,778.34 C401.39,779.25 401.66,780.00 401.07,780.00 C399.57,780.00 399.73,784.72 401.25,785.34 C402.00,785.64 401.80,785.87 400.75,785.92 C399.79,785.96 398.94,785.55 398.88,785.00 ZM 403.32 784.40 C402.72,782.83 404.51,780.97 406.50,781.09 C407.05,781.13 406.94,781.38 406.25,781.66 C404.49,782.37 404.69,785.00 406.50,785.00 C407.43,785.00 408.00,784.06 408.00,782.50 C408.00,780.58 407.48,780.00 405.75,779.98 C404.00,779.97 403.82,779.77 404.95,779.05 C407.30,777.56 410.00,779.69 410.00,783.04 C410.00,785.67 409.66,786.00 406.97,786.00 C405.11,786.00 403.70,785.38 403.32,784.40 ZM 412.14 782.75 C412.02,779.52 412.30,779.00 414.19,779.00 C416.14,779.00 416.20,779.14 414.76,780.25 C413.87,780.94 412.95,782.62 412.71,784.00 C412.40,785.79 412.23,785.44 412.14,782.75 ZM 418.56 784.75 C417.46,781.14 417.33,779.09 418.12,777.86 C419.42,775.85 420.83,778.43 420.21,781.67 C419.92,783.21 420.27,784.56 421.11,785.09 C422.21,785.79 422.13,785.97 420.72,785.98 C419.74,785.99 418.77,785.44 418.56,784.75 ZM 424.20 784.80 C421.21,781.81 424.53,777.14 428.22,779.12 C430.89,780.55 430.43,783.00 427.50,783.00 C426.12,783.00 425.00,783.50 425.00,784.11 C425.00,784.80 425.97,784.97 427.58,784.57 C429.26,784.15 429.94,784.29 429.52,784.96 C428.66,786.37 425.68,786.28 424.20,784.80 ZM 428.00 781.00 C428.00,780.45 427.33,780.00 426.50,780.00 C425.67,780.00 425.00,780.45 425.00,781.00 C425.00,781.55 425.67,782.00 426.50,782.00 C427.33,782.00 428.00,781.55 428.00,781.00 ZM 432.04 784.55 C430.20,782.33 431.71,779.00 434.57,779.00 C436.06,779.00 437.00,778.42 437.00,777.50 C437.00,776.67 437.45,776.00 438.00,776.00 C438.55,776.00 439.00,778.25 439.00,781.00 C439.00,785.84 438.91,786.00 436.12,786.00 C434.54,786.00 432.70,785.35 432.04,784.55 ZM 436.82 782.17 C437.06,780.54 436.63,780.00 435.07,780.00 C433.73,780.00 433.00,780.65 433.00,781.83 C433.00,785.63 436.27,785.92 436.82,782.17 ZM 351.00 777.50 C351.00,776.67 351.44,776.00 351.97,776.00 C352.50,776.00 352.68,776.67 352.36,777.50 C352.05,778.33 351.61,779.00 351.39,779.00 C351.18,779.00 351.00,778.33 351.00,777.50 ZM 376.00 708.65 C368.99,706.76 361.90,702.22 343.00,687.52 C322.46,671.55 313.25,666.50 301.85,664.96 C293.97,663.89 291.49,664.15 257.50,669.58 C244.50,671.66 232.35,671.07 225.27,668.02 C215.90,663.99 208.30,653.30 201.59,634.69 C196.48,620.56 189.25,604.28 185.49,598.50 C181.74,592.72 177.23,588.31 171.33,584.66 C167.01,581.99 144.50,572.25 137.50,570.03 C129.07,567.35 115.17,559.96 110.25,555.53 C100.00,546.32 98.21,532.07 103.56,502.50 C107.17,482.60 107.32,468.09 104.02,459.56 C100.50,450.49 96.15,443.79 83.91,428.55 C65.38,405.50 61.61,398.29 61.70,386.17 C61.77,377.52 67.10,366.96 78.70,352.50 C100.14,325.77 104.33,318.56 106.02,305.50 C107.18,296.50 106.88,292.78 103.32,271.52 C100.32,253.60 99.95,238.89 102.29,231.00 C104.29,224.26 110.52,217.56 119.43,212.58 C122.81,210.69 133.43,206.14 143.03,202.46 C165.26,193.96 172.76,190.02 179.39,183.39 C185.91,176.87 189.83,169.52 198.51,147.50 C209.72,119.06 214.13,112.05 223.77,107.31 C229.32,104.59 229.98,104.50 244.50,104.60 C254.10,104.67 262.56,105.31 268.00,106.38 C284.97,109.73 293.30,110.45 302.02,109.30 C314.26,107.68 323.07,102.84 343.50,86.51 C353.75,78.31 363.46,71.45 367.95,69.21 C374.80,65.80 376.09,65.50 383.95,65.50 C391.44,65.50 393.30,65.88 399.00,68.59 C402.58,70.30 410.45,75.60 416.50,80.39 C437.40,96.92 443.53,101.29 450.50,104.62 C462.11,110.18 473.15,111.29 488.50,108.45 C518.23,102.96 534.68,102.65 544.37,107.39 C547.45,108.90 551.33,111.79 553.00,113.81 C556.86,118.49 563.05,130.45 566.29,139.50 C570.08,150.05 578.40,169.30 581.36,174.35 C584.83,180.27 591.84,187.18 597.74,190.48 C603.80,193.88 618.77,200.28 631.00,204.69 C650.97,211.90 662.69,220.78 665.71,231.00 C667.92,238.47 667.62,254.43 665.01,269.00 C658.00,308.02 659.85,315.39 684.47,346.50 C701.10,367.52 706.38,377.10 706.36,386.26 C706.34,398.30 702.48,405.68 684.48,428.09 C671.41,444.35 667.65,450.07 664.29,458.80 C660.68,468.19 660.72,482.00 664.42,502.50 C667.98,522.26 668.21,537.04 665.08,545.21 C660.95,555.97 652.57,561.44 622.50,573.02 C601.50,581.11 595.73,584.23 588.39,591.50 C581.32,598.48 577.14,606.49 567.78,631.00 C557.01,659.20 550.86,666.77 536.20,669.88 C529.04,671.39 521.36,671.28 510.00,669.48 C475.62,664.05 474.04,663.89 466.15,664.98 C453.24,666.78 443.30,672.39 423.09,689.29 C410.43,699.87 399.42,706.67 391.67,708.67 C385.53,710.27 381.97,710.26 376.00,708.65 ZM 234.60 483.38 C235.97,480.28 236.87,477.54 236.61,477.28 C235.80,476.47 234.00,478.04 234.00,479.56 C234.00,480.35 233.55,481.00 233.00,481.00 C232.45,481.00 232.00,480.35 232.00,479.56 C232.00,478.00 230.19,476.47 229.35,477.31 C229.07,477.60 229.39,478.87 230.07,480.14 C230.75,481.40 231.25,483.92 231.18,485.72 C231.12,487.52 231.30,489.00 231.59,489.00 C231.87,489.00 233.23,486.47 234.60,483.38 ZM 248.90 488.09 C251.07,486.71 249.38,484.01 246.28,483.90 C243.55,483.80 243.54,483.79 245.94,483.12 C247.45,482.70 248.65,481.41 249.10,479.72 C249.50,478.22 249.75,476.96 249.66,476.92 C248.00,476.08 244.02,476.28 243.24,477.23 C241.55,479.33 240.83,487.27 242.25,488.18 C243.91,489.23 247.16,489.18 248.90,488.09 ZM 476.60 483.38 C477.97,480.28 478.87,477.54 478.61,477.28 C477.80,476.47 476.00,478.04 476.00,479.56 C476.00,480.35 475.55,481.00 475.00,481.00 C474.45,481.00 474.00,480.35 474.00,479.56 C474.00,478.01 472.20,476.47 471.36,477.31 C471.08,477.59 471.56,479.18 472.42,480.85 C473.59,483.10 473.74,484.55 473.02,486.44 C472.37,488.16 472.39,489.00 473.08,489.00 C473.65,489.00 475.23,486.47 476.60,483.38 ZM 292.00 481.95 C292.00,477.92 289.70,476.05 285.24,476.46 C283.18,476.64 280.71,476.84 279.75,476.90 C278.79,476.95 278.00,477.72 278.00,478.61 C278.00,479.84 277.55,479.67 276.12,477.90 C274.44,475.83 273.94,475.71 271.55,476.79 C269.33,477.81 268.93,478.56 269.19,481.26 C269.45,484.00 269.95,484.55 272.37,484.83 C273.95,485.01 275.75,484.64 276.37,484.01 C277.22,483.15 276.77,482.94 274.60,483.18 C272.94,483.37 271.52,482.97 271.27,482.25 C270.98,481.41 271.96,481.00 274.30,481.00 C276.93,481.00 277.89,481.49 278.29,483.00 C279.10,486.09 280.84,485.36 281.19,481.79 C281.47,478.86 281.82,478.56 285.25,478.35 C287.47,478.21 289.00,478.57 289.00,479.22 C289.00,479.83 288.72,480.05 288.37,479.70 C287.40,478.73 284.00,480.89 284.00,482.49 C284.00,484.44 286.72,485.78 289.60,485.23 C291.46,484.87 292.00,484.13 292.00,481.95 ZM 204.00 484.00 C204.00,483.45 202.88,483.00 201.50,483.00 C199.94,483.00 199.00,482.43 199.00,481.50 C199.00,480.57 199.94,480.00 201.50,480.00 C202.88,480.00 204.00,479.55 204.00,479.00 C204.00,478.45 202.88,478.00 201.50,478.00 C199.94,478.00 199.00,477.43 199.00,476.50 C199.00,475.57 199.94,475.00 201.50,475.00 C202.88,475.00 204.00,474.55 204.00,474.00 C204.00,473.45 202.43,473.00 200.50,473.00 L 197.00 473.00 L 197.00 479.00 L 197.00 485.00 L 200.50 485.00 C202.43,485.00 204.00,484.55 204.00,484.00 ZM 213.00 481.62 C213.00,479.76 212.35,477.70 211.55,477.04 C209.80,475.59 206.83,476.01 206.24,477.79 C205.92,478.73 206.52,478.91 208.40,478.44 C209.99,478.04 211.00,478.20 211.00,478.86 C211.00,479.45 210.42,479.72 209.72,479.45 C207.73,478.68 204.58,481.47 205.31,483.36 C205.73,484.45 207.11,485.00 209.47,485.00 C212.81,485.00 213.00,484.82 213.00,481.62 ZM 221.00 482.98 C221.00,481.74 220.03,480.58 218.50,480.00 C217.12,479.48 216.00,478.76 216.00,478.42 C216.00,478.07 217.12,478.07 218.50,478.41 C221.52,479.17 221.88,477.41 218.89,476.46 C217.52,476.03 216.20,476.38 215.14,477.46 C213.62,479.00 213.64,479.22 215.39,480.53 C216.43,481.30 217.78,482.11 218.39,482.33 C219.00,482.55 219.17,483.08 218.77,483.51 C218.37,483.93 217.40,483.75 216.61,483.09 C215.80,482.42 214.93,482.30 214.62,482.81 C213.75,484.21 215.04,485.00 218.17,485.00 C220.34,485.00 221.00,484.53 221.00,482.98 ZM 225.00 481.00 C225.00,478.11 224.58,477.00 223.50,477.00 C222.42,477.00 222.00,478.11 222.00,481.00 C222.00,483.89 222.42,485.00 223.50,485.00 C224.58,485.00 225.00,483.89 225.00,481.00 ZM 228.00 479.00 C228.00,475.67 227.56,473.00 227.00,473.00 C226.44,473.00 226.00,475.67 226.00,479.00 C226.00,482.33 226.44,485.00 227.00,485.00 C227.56,485.00 228.00,482.33 228.00,479.00 ZM 258.00 484.01 C258.00,483.47 257.04,483.13 255.86,483.26 C254.68,483.39 253.52,482.94 253.28,482.25 C252.98,481.42 253.88,481.00 255.92,481.00 C259.75,481.00 260.10,478.46 256.50,476.82 C254.44,475.88 253.66,476.00 252.00,477.50 C248.31,480.84 250.08,485.00 255.20,485.00 C256.74,485.00 258.00,484.56 258.00,484.01 ZM 262.19 481.75 C262.39,479.67 263.04,478.50 264.00,478.50 C264.96,478.50 265.61,479.67 265.81,481.75 C266.23,486.05 268.00,485.94 268.00,481.62 C268.00,477.50 266.07,475.69 262.60,476.57 C260.36,477.13 260.00,477.75 260.00,481.11 C260.00,485.81 261.75,486.32 262.19,481.75 ZM 297.25 484.34 C296.56,484.06 296.00,482.52 296.00,480.92 C296.00,479.29 296.55,477.97 297.25,477.92 C298.25,477.86 298.25,477.74 297.25,477.34 C296.56,477.06 296.00,476.20 296.00,475.42 C296.00,474.64 295.57,474.00 295.04,474.00 C293.87,474.00 292.16,477.10 292.55,478.50 C292.70,479.05 293.10,480.74 293.43,482.25 C293.88,484.28 294.62,484.98 296.27,484.92 C297.50,484.88 297.94,484.62 297.25,484.34 ZM 306.31 484.36 C307.54,483.13 305.82,481.90 304.45,483.04 C303.03,484.22 301.00,483.57 301.00,481.94 C301.00,481.42 302.35,481.00 304.00,481.00 C307.77,481.00 308.05,478.44 304.46,476.80 C302.28,475.81 301.61,475.95 299.78,477.78 C297.95,479.61 297.81,480.28 298.80,482.46 C299.65,484.32 300.72,485.00 302.81,485.00 C304.38,485.00 305.95,484.71 306.31,484.36 ZM 319.92 483.25 C320.89,481.58 320.94,481.58 320.97,483.25 C320.99,484.21 321.67,485.00 322.50,485.00 C323.55,485.00 324.00,483.94 324.00,481.50 C324.00,479.06 324.45,478.00 325.50,478.00 C326.55,478.00 327.00,479.06 327.00,481.50 C327.00,483.94 327.45,485.00 328.50,485.00 C329.43,485.00 330.00,484.06 330.00,482.50 C330.00,480.39 330.47,480.00 333.00,480.00 C335.53,480.00 336.00,480.39 336.00,482.50 C336.00,484.74 336.40,485.00 339.95,485.00 C342.66,485.00 344.22,484.45 344.92,483.25 C345.89,481.58 345.94,481.58 345.97,483.25 C346.03,486.45 348.86,485.17 349.19,481.79 C349.47,478.86 349.82,478.56 353.25,478.35 C355.31,478.22 357.00,478.56 357.00,479.12 C357.00,479.67 356.62,479.88 356.15,479.59 C355.68,479.30 354.48,479.66 353.48,480.39 C350.65,482.46 352.29,485.00 356.47,485.00 C359.71,485.00 360.00,484.76 360.00,482.07 C360.00,477.57 355.33,474.04 353.43,477.11 C352.98,477.84 352.54,477.87 352.12,477.20 C351.15,475.62 346.00,477.00 346.00,478.84 C346.00,480.02 345.58,479.84 344.38,478.14 C343.38,476.71 342.08,476.01 340.97,476.30 C339.78,476.61 339.00,476.10 338.65,474.78 C337.96,472.15 336.00,473.46 336.00,476.56 C336.00,478.62 335.52,479.00 332.93,479.00 C331.24,479.00 329.16,478.30 328.30,477.44 C327.44,476.59 326.09,476.14 325.29,476.44 C324.49,476.75 323.17,477.00 322.36,477.00 C321.55,477.00 321.14,477.42 321.46,477.93 C321.77,478.44 321.58,479.14 321.02,479.49 C320.46,479.84 320.00,479.63 320.00,479.04 C320.00,478.44 318.88,477.45 317.50,476.82 C315.44,475.88 314.66,476.00 313.00,477.50 C309.33,480.82 311.08,485.00 316.15,485.00 C317.71,485.00 319.34,484.25 319.92,483.25 ZM 363.19 481.75 C363.39,479.67 364.04,478.50 365.00,478.50 C365.96,478.50 366.61,479.67 366.81,481.75 C367.23,486.05 369.00,485.94 369.00,481.62 C369.00,477.50 367.07,475.69 363.60,476.57 C361.36,477.13 361.00,477.75 361.00,481.11 C361.00,485.81 362.75,486.32 363.19,481.75 ZM 379.00 479.00 C379.00,475.67 378.56,473.00 378.00,473.00 C377.45,473.00 377.00,473.95 377.00,475.11 C377.00,476.61 376.55,477.04 375.43,476.61 C372.80,475.60 370.00,477.80 370.00,480.87 C370.00,484.53 370.59,485.00 375.17,485.00 L 379.00 485.00 L 379.00 479.00 ZM 391.53 483.95 C391.94,483.28 391.15,483.01 389.38,483.20 C387.30,483.42 386.47,483.02 386.19,481.64 C385.25,477.04 390.96,477.41 392.72,482.07 C393.61,484.42 394.42,485.00 396.86,485.00 C398.70,485.00 400.30,484.31 400.92,483.25 C401.89,481.58 401.94,481.58 401.97,483.25 C402.02,486.43 404.86,485.17 405.19,481.83 C405.64,477.24 408.00,476.90 408.00,481.42 C408.00,484.06 408.43,485.00 409.63,485.00 C410.95,485.00 411.15,484.30 410.67,481.34 C410.34,479.32 409.69,477.29 409.22,476.82 C407.95,475.55 402.00,477.04 402.00,478.62 C402.00,479.58 401.39,479.39 400.00,478.00 C397.61,475.61 395.70,475.46 393.98,477.53 C392.85,478.89 392.51,478.87 390.85,477.37 C388.09,474.87 384.00,476.92 384.00,480.81 C384.00,482.38 384.30,483.97 384.67,484.33 C385.73,485.39 390.82,485.11 391.53,483.95 ZM 416.25 484.34 C414.77,483.74 414.55,478.00 416.01,478.00 C416.61,478.00 416.51,477.19 415.77,476.00 C413.43,472.25 411.40,473.83 411.91,479.00 C412.36,483.65 413.13,485.00 415.27,484.92 C416.50,484.88 416.94,484.62 416.25,484.34 ZM 425.53 483.95 C425.94,483.29 425.17,483.01 423.45,483.20 C421.91,483.37 420.52,482.95 420.27,482.25 C419.98,481.43 420.88,481.00 422.92,481.00 C426.30,481.00 427.03,479.10 424.47,476.98 C421.98,474.91 418.00,477.26 418.00,480.81 C418.00,482.38 418.30,483.97 418.67,484.33 C419.73,485.39 424.82,485.11 425.53,483.95 ZM 429.19 481.75 C429.39,479.67 430.04,478.50 431.00,478.50 C431.96,478.50 432.61,479.67 432.81,481.75 C433.23,486.05 435.00,485.94 435.00,481.62 C435.00,477.50 433.07,475.69 429.60,476.57 C427.36,477.13 427.00,477.75 427.00,481.11 C427.00,485.81 428.75,486.32 429.19,481.75 ZM 440.25 484.34 C438.81,483.76 438.54,478.33 439.93,477.83 C440.44,477.65 440.22,476.63 439.44,475.57 C437.31,472.68 436.66,474.13 436.88,481.25 C436.98,484.46 437.32,484.99 439.25,484.92 C440.49,484.88 440.94,484.62 440.25,484.34 ZM 449.00 481.50 C449.00,479.58 449.51,478.00 450.12,478.00 C450.90,478.00 450.86,477.54 450.00,476.50 C448.98,475.27 449.05,475.00 450.38,475.00 C451.27,475.00 452.00,474.55 452.00,474.00 C452.00,472.13 447.94,472.99 447.19,475.01 C446.24,477.57 446.92,485.00 448.11,485.00 C448.60,485.00 449.00,483.42 449.00,481.50 ZM 459.64 483.50 C459.95,482.67 460.60,482.00 461.08,482.00 C461.55,482.00 461.68,482.67 461.36,483.50 C461.00,484.45 461.38,485.00 462.39,485.00 C463.51,485.00 464.00,484.09 464.00,482.05 C464.00,480.29 464.70,478.71 465.74,478.12 C466.70,477.59 467.20,476.87 466.86,476.53 C465.96,475.63 460.92,477.05 461.52,478.04 C461.80,478.49 461.58,479.14 461.02,479.49 C460.46,479.84 460.00,479.63 460.00,479.04 C460.00,478.44 458.88,477.45 457.50,476.82 C455.44,475.88 454.66,476.00 453.00,477.50 C449.30,480.85 451.09,485.00 456.23,485.00 C457.83,485.00 459.31,484.34 459.64,483.50 ZM 487.81 481.32 C488.04,478.91 487.60,477.86 486.02,477.01 C483.14,475.47 480.13,476.64 479.39,479.58 C478.54,482.98 480.64,485.17 484.41,484.80 C487.07,484.54 487.54,484.06 487.81,481.32 ZM 497.00 481.00 C497.00,476.22 495.26,475.62 494.81,480.25 C494.61,482.33 493.96,483.50 493.00,483.50 C492.04,483.50 491.39,482.33 491.19,480.25 C491.01,478.46 490.45,477.00 489.94,477.00 C488.88,477.00 488.64,483.31 489.67,484.33 C490.03,484.70 491.83,485.00 493.67,485.00 C496.89,485.00 497.00,484.87 497.00,481.00 ZM 501.00 482.05 C501.00,480.29 501.70,478.71 502.74,478.12 C505.12,476.80 504.09,476.06 500.75,476.70 C498.31,477.17 498.00,477.67 498.00,481.12 C498.00,483.90 498.42,485.00 499.50,485.00 C500.49,485.00 501.00,484.01 501.00,482.05 ZM 516.76 482.82 L 517.33 480.65 L 518.13 482.82 C518.75,484.50 519.75,485.00 522.47,485.00 C525.92,485.00 526.00,484.91 526.00,481.00 C526.00,476.22 524.26,475.62 523.81,480.25 C523.61,482.33 522.96,483.50 522.00,483.50 C521.04,483.50 520.39,482.33 520.19,480.25 C519.87,476.92 518.00,475.62 518.00,478.72 C518.00,480.11 517.69,480.00 516.38,478.14 C515.34,476.65 514.10,476.00 512.88,476.32 C511.50,476.68 511.00,476.28 511.00,474.82 C511.00,473.68 510.47,473.01 509.75,473.25 C509.00,473.49 508.38,475.91 508.20,479.33 L 507.90 485.00 L 512.04 485.00 C515.46,485.00 516.29,484.62 516.76,482.82 ZM 534.00 482.98 C534.00,481.74 533.03,480.58 531.50,480.00 C530.12,479.48 529.00,478.76 529.00,478.42 C529.00,478.07 530.12,478.07 531.50,478.41 C534.52,479.17 534.88,477.41 531.89,476.46 C530.52,476.03 529.20,476.38 528.14,477.46 C526.62,479.00 526.64,479.22 528.39,480.53 C529.43,481.30 530.78,482.11 531.39,482.33 C532.00,482.55 532.17,483.08 531.77,483.51 C531.37,483.93 530.40,483.75 529.61,483.09 C528.80,482.42 527.93,482.30 527.62,482.81 C526.75,484.21 528.04,485.00 531.17,485.00 C533.34,485.00 534.00,484.53 534.00,482.98 ZM 538.00 481.00 C538.00,478.11 537.58,477.00 536.50,477.00 C535.42,477.00 535.00,478.11 535.00,481.00 C535.00,483.89 535.42,485.00 536.50,485.00 C537.58,485.00 538.00,483.89 538.00,481.00 ZM 541.19 481.75 C541.39,479.67 542.04,478.50 543.00,478.50 C543.96,478.50 544.61,479.67 544.81,481.75 C545.23,486.05 547.00,485.94 547.00,481.62 C547.00,477.50 545.07,475.69 541.60,476.57 C539.36,477.13 539.00,477.75 539.00,481.11 C539.00,485.81 540.75,486.32 541.19,481.75 ZM 555.46 484.06 C555.78,483.54 554.85,483.20 553.38,483.31 C551.92,483.41 550.53,482.97 550.30,482.31 C550.03,481.57 551.25,481.01 553.56,480.81 L 557.24 480.50 L 555.24 478.04 C553.46,475.85 552.94,475.70 550.62,476.76 C548.68,477.65 548.00,478.70 548.00,480.81 C548.00,482.38 548.30,483.97 548.67,484.33 C549.67,485.34 554.80,485.13 555.46,484.06 ZM 564.00 482.91 C564.00,481.65 563.20,480.60 562.00,480.29 C560.90,480.00 560.00,479.34 560.00,478.82 C560.00,478.29 560.90,478.15 562.00,478.50 C563.10,478.85 564.00,478.68 564.00,478.13 C564.00,476.51 560.03,475.73 558.45,477.04 C556.37,478.77 556.65,479.88 559.50,481.18 C562.81,482.69 562.71,484.22 559.35,483.37 C557.49,482.91 556.91,483.05 557.41,483.85 C557.80,484.48 559.44,485.00 561.06,485.00 C563.38,485.00 564.00,484.56 564.00,482.91 ZM 571.81 482.75 C572.03,481.62 571.24,480.66 569.57,480.03 C566.54,478.88 566.10,477.53 569.00,478.29 C571.07,478.83 571.76,477.59 569.99,476.49 C568.43,475.53 565.00,476.97 565.00,478.59 C565.00,479.39 566.12,480.56 567.50,481.18 C568.88,481.81 570.00,482.75 570.00,483.27 C570.00,483.79 568.88,483.93 567.50,483.59 C565.99,483.21 565.00,483.39 565.00,484.04 C565.00,485.92 571.45,484.70 571.81,482.75 ZM 224.50 474.00 C224.16,473.45 223.46,473.00 222.94,473.00 C222.42,473.00 222.00,473.45 222.00,474.00 C222.00,474.55 222.70,475.00 223.56,475.00 C224.42,475.00 224.84,474.55 224.50,474.00 ZM 538.00 474.00 C538.00,473.45 537.33,473.00 536.50,473.00 C535.67,473.00 535.00,473.45 535.00,474.00 C535.00,474.55 535.67,475.00 536.50,475.00 C537.33,475.00 538.00,474.55 538.00,474.00 ZM 299.50 410.60 C309.83,405.49 316.66,398.52 322.12,387.49 C325.96,379.74 326.43,377.99 326.81,370.05 C327.32,359.51 326.13,355.26 321.13,349.71 C316.31,344.36 310.98,342.05 303.43,342.02 C287.54,341.96 270.82,353.44 262.66,370.00 C253.48,388.64 256.49,405.50 270.23,412.47 C274.95,414.87 276.36,415.11 283.69,414.76 C290.69,414.42 292.98,413.82 299.50,410.60 ZM 420.73 412.08 C425.51,408.62 434.24,398.20 433.44,396.91 C432.46,395.31 430.27,395.93 428.74,398.25 C426.75,401.26 421.94,406.00 420.86,406.00 C419.20,406.00 420.05,402.59 426.96,381.63 C434.86,357.66 435.71,353.69 434.03,348.61 C432.56,344.14 429.62,341.99 425.03,342.02 C416.27,342.08 406.11,350.55 395.15,366.94 C391.77,372.00 389.00,375.86 389.00,375.53 C389.00,375.21 390.35,370.39 392.00,364.84 C395.85,351.88 395.86,348.71 392.08,344.92 C384.25,337.10 369.60,345.44 357.28,364.75 C354.74,368.73 352.52,371.85 352.35,371.68 C352.18,371.52 353.91,364.99 356.19,357.19 C358.47,349.39 360.07,342.73 359.74,342.40 C359.22,341.89 341.75,344.13 335.25,345.55 C334.01,345.82 333.00,346.76 333.00,347.65 C333.00,348.96 333.72,349.14 336.90,348.63 C339.83,348.16 341.34,348.45 343.01,349.81 L 345.23 351.61 L 336.62 381.18 C331.88,397.45 328.00,411.26 328.00,411.88 C328.00,412.58 330.19,413.00 333.84,413.00 L 339.69 413.00 L 343.94 400.25 C349.30,384.17 354.27,374.76 363.33,363.52 C370.55,354.58 376.46,350.19 379.65,351.42 C382.33,352.45 380.78,360.26 372.55,387.00 C368.41,400.48 365.01,411.84 365.01,412.25 C365.00,412.66 367.83,413.00 371.29,413.00 L 377.59 413.00 L 378.77 408.57 C383.86,389.54 401.23,361.80 412.99,353.89 C418.19,350.40 419.72,350.29 421.08,353.28 C421.93,355.14 420.75,359.90 414.68,379.03 C410.58,391.94 406.93,403.94 406.55,405.69 C405.87,408.86 407.16,412.74 409.40,414.23 C411.83,415.86 416.82,414.91 420.73,412.08 ZM 470.77 413.48 C480.23,410.67 497.77,397.37 495.29,394.89 C494.50,394.10 492.45,394.98 487.85,398.12 C474.29,407.37 463.42,408.27 456.08,400.77 C452.57,397.18 450.58,391.21 451.49,387.03 C452.07,384.40 452.57,384.16 459.65,383.10 C482.06,379.77 499.38,368.53 501.51,355.94 C502.36,350.92 499.83,346.21 494.97,343.75 C487.54,340.01 472.22,342.44 462.03,348.98 C447.11,358.55 435.61,379.58 437.33,394.13 C438.04,400.14 442.14,408.26 445.72,410.77 C451.98,415.15 461.62,416.19 470.77,413.48 ZM 517.40 411.65 C519.27,410.22 522.95,406.54 525.57,403.47 C530.11,398.15 530.25,397.82 528.54,396.20 C527.17,394.89 526.65,394.80 526.28,395.81 C526.01,396.52 524.36,399.00 522.60,401.31 C518.88,406.20 514.99,407.49 515.02,403.82 C515.04,402.54 521.76,379.23 529.96,352.02 C538.16,324.80 544.71,302.38 544.53,302.19 C544.19,301.86 523.65,304.58 519.25,305.55 C518.01,305.82 517.00,306.70 517.00,307.52 C517.00,308.62 518.24,309.00 521.88,309.00 C524.96,309.00 527.21,309.54 527.98,310.48 C529.36,312.14 528.18,316.53 511.70,371.05 C500.03,409.68 500.22,408.74 503.09,412.39 C505.07,414.91 505.80,415.17 509.65,414.74 C512.17,414.45 515.41,413.16 517.40,411.65 ZM 553.16 412.12 C555.66,410.53 559.79,406.53 562.33,403.22 C566.44,397.88 566.78,397.06 565.38,395.90 C564.05,394.80 563.64,394.90 562.72,396.53 C560.27,400.91 554.30,406.33 552.63,405.69 C550.51,404.87 550.11,406.54 561.72,368.00 C579.08,310.36 581.24,302.90 580.69,302.35 C580.21,301.88 562.44,304.20 556.25,305.55 C555.01,305.82 554.00,306.68 554.00,307.47 C554.00,308.49 555.51,308.98 559.25,309.20 C564.13,309.48 564.52,309.69 564.81,312.23 C564.99,313.73 560.32,330.83 554.45,350.23 C535.87,411.57 536.38,409.38 540.00,413.00 C542.87,415.87 547.76,415.54 553.16,412.12 ZM 592.64 411.66 C595.31,409.82 599.46,405.93 601.85,403.00 C605.69,398.31 605.99,397.58 604.49,396.73 C603.12,395.97 601.90,396.79 598.31,400.89 C594.08,405.73 590.00,407.59 590.00,404.67 C590.00,403.94 591.77,397.53 593.92,390.42 C596.08,383.31 600.20,369.73 603.08,360.24 C605.96,350.75 608.06,342.73 607.75,342.42 C607.25,341.92 588.09,344.27 582.25,345.55 C581.01,345.82 580.00,346.75 580.00,347.63 C580.00,348.88 580.79,349.12 583.75,348.76 C585.81,348.50 588.57,348.69 589.88,349.17 C592.03,349.96 592.20,350.47 591.65,354.28 C591.31,356.60 587.85,368.62 583.96,381.00 C580.07,393.38 576.82,405.16 576.73,407.19 C576.39,415.44 584.02,417.59 592.64,411.66 ZM 202.00 411.55 C202.00,410.64 200.59,409.87 198.25,409.49 C189.15,408.04 188.94,407.05 193.98,389.41 C201.99,361.40 201.86,361.72 204.32,362.45 C205.52,362.81 211.00,363.36 216.50,363.67 C236.99,364.86 253.32,356.95 260.14,342.54 C267.32,327.37 260.27,312.90 243.50,308.37 C239.93,307.41 231.28,307.02 213.25,307.01 C191.82,307.00 188.00,307.22 188.00,308.45 C188.00,309.35 189.44,310.17 191.75,310.58 C199.20,311.92 200.33,315.07 197.41,326.36 C193.81,340.31 176.91,397.05 175.09,401.29 C172.82,406.60 170.16,408.63 164.31,409.57 C162.01,409.94 159.88,410.86 159.59,411.62 C159.15,412.77 162.67,413.00 180.53,413.00 C198.65,413.00 202.00,412.77 202.00,411.55 ZM 609.69 324.83 C612.74,321.96 612.81,316.49 609.83,313.31 C605.12,308.31 596.00,312.06 596.00,319.00 C596.00,325.83 604.68,329.52 609.69,324.83 ZM 244.00 486.00 C244.00,485.45 244.65,485.00 245.44,485.00 C246.23,485.00 247.16,485.45 247.50,486.00 C247.84,486.55 247.19,487.00 246.06,487.00 C244.93,487.00 244.00,486.55 244.00,486.00 ZM 244.00 479.50 C244.00,478.67 244.68,478.00 245.50,478.00 C246.32,478.00 247.00,478.67 247.00,479.50 C247.00,480.33 246.32,481.00 245.50,481.00 C244.68,481.00 244.00,480.33 244.00,479.50 ZM 286.00 482.58 C286.00,481.71 286.71,481.00 287.58,481.00 C288.45,481.00 288.99,481.53 288.77,482.19 C288.15,484.04 286.00,484.35 286.00,482.58 ZM 271.50 479.00 C271.84,478.45 272.77,478.00 273.56,478.00 C274.35,478.00 275.00,478.45 275.00,479.00 C275.00,479.55 274.07,480.00 272.94,480.00 C271.81,480.00 271.16,479.55 271.50,479.00 ZM 207.50 482.99 C207.15,482.44 207.60,481.71 208.48,481.37 C210.39,480.63 211.46,481.44 210.54,482.93 C209.71,484.28 208.31,484.30 207.50,482.99 ZM 253.00 479.00 C253.00,478.45 253.65,478.00 254.44,478.00 C255.23,478.00 256.16,478.45 256.50,479.00 C256.84,479.55 256.19,480.00 255.06,480.00 C253.93,480.00 253.00,479.55 253.00,479.00 ZM 301.00 479.00 C301.00,478.45 301.65,478.00 302.44,478.00 C303.23,478.00 304.16,478.45 304.50,479.00 C304.84,479.55 304.19,480.00 303.06,480.00 C301.93,480.00 301.00,479.55 301.00,479.00 ZM 314.13 482.66 C312.61,480.83 313.79,477.81 315.88,478.21 C316.84,478.40 317.50,479.51 317.50,480.93 C317.50,483.77 315.78,484.65 314.13,482.66 ZM 339.39 482.58 C338.57,480.43 339.72,477.74 341.25,478.25 C341.94,478.48 342.50,479.72 342.50,481.00 C342.50,483.74 340.27,484.88 339.39,482.58 ZM 354.00 482.58 C354.00,481.71 354.71,481.00 355.58,481.00 C356.45,481.00 356.99,481.53 356.77,482.19 C356.15,484.04 354.00,484.35 354.00,482.58 ZM 372.36 482.50 C371.57,480.43 372.65,478.00 374.36,478.00 C376.31,478.00 377.29,480.95 375.89,482.63 C374.41,484.42 373.08,484.37 372.36,482.50 ZM 395.13 482.66 C393.61,480.83 394.79,477.81 396.88,478.21 C397.84,478.40 398.50,479.51 398.50,480.93 C398.50,483.77 396.78,484.65 395.13,482.66 ZM 420.80 478.80 C421.73,477.87 422.27,477.87 423.20,478.80 C424.13,479.73 423.87,480.00 422.00,480.00 C420.13,480.00 419.87,479.73 420.80,478.80 ZM 454.13 482.66 C452.61,480.83 453.79,477.81 455.88,478.21 C456.84,478.40 457.50,479.51 457.50,480.93 C457.50,483.77 455.78,484.65 454.13,482.66 ZM 482.13 482.66 C480.61,480.83 481.79,477.81 483.88,478.21 C484.84,478.40 485.50,479.51 485.50,480.93 C485.50,483.77 483.78,484.65 482.13,482.66 ZM 511.39 482.58 C510.57,480.43 511.72,477.74 513.25,478.25 C513.94,478.48 514.50,479.72 514.50,481.00 C514.50,483.74 512.27,484.88 511.39,482.58 ZM 550.50 479.00 C550.84,478.45 551.77,478.00 552.56,478.00 C553.35,478.00 554.00,478.45 554.00,479.00 C554.00,479.55 553.07,480.00 551.94,480.00 C550.81,480.00 550.16,479.55 550.50,479.00 ZM 278.06 409.17 C273.29,406.61 271.00,401.85 271.01,394.52 C271.06,375.49 284.56,350.61 296.82,346.94 C300.10,345.95 301.86,345.94 305.00,346.88 C312.12,349.02 314.59,355.78 312.90,368.49 C310.41,387.25 298.70,406.68 287.95,409.90 C283.01,411.38 282.04,411.31 278.06,409.17 ZM 453.00 378.30 C453.00,374.64 459.54,361.61 463.71,356.98 C472.48,347.22 483.72,343.47 488.09,348.86 C490.47,351.80 490.47,354.36 488.10,359.58 C483.83,368.99 472.64,376.10 457.75,378.86 C453.87,379.58 453.00,379.48 453.00,378.30 ZM 208.75 357.83 C206.14,357.26 204.01,356.27 204.03,355.64 C204.07,353.88 215.70,313.96 216.37,313.30 C216.70,312.97 221.13,312.66 226.23,312.60 C236.74,312.49 240.29,313.80 244.14,319.19 C249.12,326.19 247.15,340.52 240.00,349.19 C233.82,356.68 220.37,360.40 208.75,357.83 Z" fill="rgba(0,0,0,1)"/>
</g>
</svg>